<svg width="57" height="55" viewBox="0 0 57 55" fill="none" xmlns="http://www.w3.org/2000/svg">
<path d="M37.4062 27.5C37.4062 29.7792 36.4679 31.9651 34.7977 33.5767C33.1274 35.1883 30.8621 36.0938 28.5 36.0938C26.1379 36.0938 23.8726 35.1883 22.2023 33.5767C20.5321 31.9651 19.5938 29.7792 19.5938 27.5C19.5938 25.2208 20.5321 23.0349 22.2023 21.4233C23.8726 19.8117 26.1379 18.9062 28.5 18.9062C30.8621 18.9062 33.1274 19.8117 34.7977 21.4233C36.4679 23.0349 37.4062 25.2208 37.4062 27.5Z" fill="white"/>
<path d="M0 27.5C0 27.5 10.6875 8.59375 28.5 8.59375C46.3125 8.59375 57 27.5 57 27.5C57 27.5 46.3125 46.4062 28.5 46.4062C10.6875 46.4062 0 27.5 0 27.5ZM28.5 39.5312C31.8069 39.5312 34.9784 38.2637 37.3167 36.0074C39.6551 33.7511 40.9688 30.6909 40.9688 27.5C40.9688 24.3091 39.6551 21.2489 37.3167 18.9926C34.9784 16.7363 31.8069 15.4688 28.5 15.4688C25.1931 15.4688 22.0216 16.7363 19.6833 18.9926C17.3449 21.2489 16.0313 24.3091 16.0312 27.5C16.0313 30.6909 17.3449 33.7511 19.6833 36.0074C22.0216 38.2637 25.1931 39.5312 28.5 39.5312Z" fill="white"/>
</svg>
