<svg width="58" height="58" viewBox="0 0 58 58" fill="none" xmlns="http://www.w3.org/2000/svg">
<path d="M39.1137 46.806L33.263 40.9516C31.0004 41.7606 28.5547 41.9104 26.2103 41.3836C23.8659 40.8569 21.7193 39.6752 20.0202 37.9762C18.3212 36.2771 17.1395 34.1305 16.6128 31.7861C16.086 29.4417 16.2358 26.9959 17.0448 24.7334L9.57725 17.2659C3.40025 22.7577 0 29 0 29C0 29 10.875 48.9375 29 48.9375C32.4818 48.9284 35.9244 48.2028 39.1137 46.806ZM18.8863 11.194C22.0756 9.79715 25.5182 9.0716 29 9.0625C47.125 9.0625 58 29 58 29C58 29 54.5961 35.2386 48.4264 40.7377L40.9516 33.263C41.7606 31.0004 41.9104 28.5547 41.3836 26.2103C40.8569 23.8659 39.6752 21.7193 37.9762 20.0202C36.2771 18.3212 34.1305 17.1395 31.7861 16.6128C29.4417 16.086 26.9959 16.2358 24.7334 17.0448L18.8863 11.194Z" fill="white" fill-opacity="0.5"/>
<path d="M20.0282 27.7167C19.8288 29.1099 19.9566 30.5303 20.4014 31.8654C20.8463 33.2006 21.596 34.4138 22.5911 35.4089C23.5862 36.4041 24.7994 37.1538 26.1346 37.5986C27.4698 38.0435 28.8902 38.1713 30.2833 37.9719L20.0282 27.7167ZM37.9719 30.2832L27.7168 20.0245C29.1099 19.8251 30.5303 19.9529 31.8655 20.3977C33.2007 20.8426 34.4139 21.5923 35.409 22.5874C36.4041 23.5825 37.1538 24.7957 37.5987 26.1309C38.0435 27.4661 38.1713 28.8865 37.9719 30.2796V30.2832ZM49.4668 52.0332L5.9668 8.53324L8.5333 5.96674L52.0333 49.4667L49.4668 52.0332Z" fill="white" fill-opacity="0.5"/>
</svg>
